#!OML:ASF F:\VICON\USERDATA\INSTALL\rory3\rory3.ASF
:FULLY-SPECIFIED
:DEGREES
1119
root -9.52198 17.6396 16.0131 -176.935 -22.3629 176.754
lowerback 11.9573 0.265253 -0.692533
upperback 0.880014 0.241402 1.39057
thorax -5.79574 0.109401 1.8156
lowerneck -13.8271 1.49663 -11.4586
upperneck 41.181 -1.057 6.0876
head 17.5201 -2.81282 4.25881
rclavicle 1.95803e-014 -7.15625e-015
rhumerus -36.1285 -21.2613 -70.5455
rradius 35.4718
rwrist 8.25369
rhand -14.3196 9.27674
rfingers 7.12502
rthumb 11.8209 -20.3696
lclavicle 1.95803e-014 -7.15625e-015
lhumerus -27.6689 2.67081 85.4109
lradius 30.1198
lwrist -5.01514
lhand -23.4939 23.632
lfingers 7.12502
lthumb 2.96613 53.5911
rfemur -9.88931 1.5086 1.98085
rtibia 29.7702
rfoot -16.386 -10.4923
rtoes -2.12389
lfemur -5.99475 -4.50961 -17.0805
ltibia 22.4557
lfoot -15.1639 -5.97882
ltoes -14.975
1120
root -9.57766 17.656 16.067 -176.984 -21.8332 176.819
lowerback 12.1646 0.314774 -0.715117
upperback 0.870308 0.299664 1.33932
thorax -5.9238 0.138292 1.76538
lowerneck -13.8754 1.54733 -11.4308
upperneck 41.1845 -0.981685 6.07274
head 17.5231 -2.78278 4.25952
rclavicle -1.07344e-014 -5.56597e-015
rhumerus -36.1018 -20.97 -71.0281
rradius 35.2004
rwrist 8.86124
rhand -14.1663 9.56822
rfingers 7.12502
rthumb 11.9687 -20.0696
lclavicle -1.07344e-014 -5.56597e-015
lhumerus -27.8029 2.50144 85.1523
lradius 30.4601
lwrist -4.48431
lhand -23.8432 23.8107
lfingers 7.12502
lthumb 2.62876 53.7742
rfemur -10.4336 0.649309 2.47651
rtibia 30.9122
rfoot -16.8095 -10.5106
rtoes -2.00963
lfemur -5.9832 -4.54767 -17.3733
ltibia 22.4731
lfoot -14.9353 -5.3478
ltoes -14.4076
1121
root -9.6293 17.672 16.1135 -177.023 -21.4314 176.825
lowerback 12.2849 0.338782 -0.84568
upperback 0.933698 0.307551 1.32573
thorax -5.92507 0.143023 1.82384
lowerneck -14.0097 1.54496 -11.3801
upperneck 41.1593 -0.921282 5.95524
head 17.5365 -2.76033 4.20677
rclavicle 3.06128e-014 3.97569e-015
rhumerus -35.9393 -20.7004 -71.4772
rradius 34.9369
rwrist 9.42909
rhand -14.0697 9.67132
rfingers 7.12502
rthumb 12.0619 -19.9611
lclavicle 3.06128e-014 3.97569e-015
lhumerus -27.8395 2.49107 84.9352
lradius 30.7643
lwrist -4.05091
lhand -23.9673 24.3001
lfingers 7.12502
lthumb 2.50897 54.2651
rfemur -10.8492 -0.318213 2.98505
rtibia 32.0776
rfoot -17.3248 -10.4939
rtoes -1.5942
lfemur -5.93985 -4.47676 -17.6689
ltibia 22.4774
lfoot -14.8099 -5.01532
ltoes -13.402
1122
root -9.6728 17.685 16.1508 -177.226 -21.0814 177.006
lowerback 12.316 0.399889 -0.950835
upperback 1.09084 0.367387 1.40742
thorax -5.7801 0.169291 1.95897
lowerneck -14.0803 1.45706 -11.4345
upperneck 40.9978 -0.949599 5.87587
head 17.469 -2.76933 4.17188
rclavicle -2.08724e-015 -2.38542e-014
rhumerus -35.7767 -20.6213 -71.7957
rradius 34.7429
rwrist 9.85889
rhand -13.8174 9.3493
rfingers 7.12502
rthumb 12.3052 -20.2686
lclavicle -2.08724e-015 -2.38542e-014
lhumerus -27.7652 2.62344 84.7374
lradius 31.0363
lwrist -3.72663
lhand -23.5345 24.4818
lfingers 7.12502
lthumb 2.92695 54.4415
rfemur -11.0697 -1.1531 3.77268
rtibia 33.2589
rfoot -17.786 -10.5481
rtoes -0.696419
lfemur -5.77874 -4.36604 -17.726
ltibia 22.4916
lfoot -14.8202 -4.73169
ltoes -13.2194
1123
root -9.71535 17.6963 16.1908 -177.374 -20.5784 177.274
lowerback 12.3132 0.500175 -0.96108
upperback 1.17602 0.495836 1.47012
thorax -5.69464 0.229251 2.0088
lowerneck -14.0904 1.40773 -11.5038
upperneck 40.8507 -0.994008 5.93916
head 17.3945 -2.77353 4.20279
rclavicle -4.57205e-014 8.74653e-015
rhumerus -35.7399 -20.4799 -72.1387
rradius 34.6418
rwrist 9.93721
rhand -13.5809 9.18046
rfingers 7.12502
rthumb 12.5332 -20.4237
lclavicle -4.57205e-014 8.74653e-015
lhumerus -27.7654 2.6613 84.5017
lradius 31.2745
lwrist -3.2134
lhand -23.4124 24.1424
lfingers 7.12502
lthumb 3.04485 54.1004
rfemur -11.4796 -1.95207 4.65726
rtibia 34.4546
rfoot -18.1292 -10.5584
rtoes 0.352587
lfemur -5.71539 -4.19089 -17.6966
ltibia 22.5195
lfoot -14.7606 -4.34317
ltoes -13.3474
